<svg width="13" height="13" viewBox="0 0 13 13" fill="none" xmlns="http://www.w3.org/2000/svg">
<g clip-path="url(#clip0_191_268)">
<path d="M3.25 0.40625C3.25 0.298506 3.2072 0.195175 3.13101 0.118988C3.05483 0.0428012 2.95149 0 2.84375 0C2.73601 0 2.63267 0.0428012 2.55649 0.118988C2.4803 0.195175 2.4375 0.298506 2.4375 0.40625V0.8125H1.625C1.19402 0.8125 0.780698 0.983705 0.475951 1.28845C0.171205 1.5932 0 2.00652 0 2.4375L0 3.25H13V2.4375C13 2.00652 12.8288 1.5932 12.524 1.28845C12.2193 0.983705 11.806 0.8125 11.375 0.8125H10.5625V0.40625C10.5625 0.298506 10.5197 0.195175 10.4435 0.118988C10.3673 0.0428012 10.264 0 10.1562 0C10.0485 0 9.94517 0.0428012 9.86899 0.118988C9.7928 0.195175 9.75 0.298506 9.75 0.40625V0.8125H3.25V0.40625ZM7.63913 8.32487C8.14694 8.32487 8.60113 7.93162 8.60113 7.36612C8.60113 6.69012 8.17294 6.36675 7.65862 6.36675C7.1825 6.36675 6.70963 6.68119 6.70963 7.34987C6.70963 8.01369 7.15081 8.32487 7.63913 8.32487Z" fill="#FBFBFB"/>
<path d="M13 11.375V4.0625H0V11.375C0 11.806 0.171205 12.2193 0.475951 12.524C0.780698 12.8288 1.19402 13 1.625 13H11.375C11.806 13 12.2193 12.8288 12.524 12.524C12.8288 12.2193 13 11.806 13 11.375ZM7.5855 10.3919C6.68363 10.3919 6.24 9.76869 6.20181 9.24869H6.75675C6.79169 9.54931 7.07119 9.91494 7.61069 9.91494C8.29644 9.91494 8.66775 9.22594 8.671 8.15669H8.64906C8.52475 8.49306 8.1315 8.79856 7.52537 8.79856C6.83313 8.79856 6.16362 8.30294 6.16362 7.36044C6.16362 6.43663 6.87131 5.89062 7.62369 5.89062C8.57594 5.89062 9.2105 6.487 9.2105 8.05838C9.2105 9.52494 8.60763 10.3911 7.5855 10.3911V10.3919ZM5.23738 5.97594V10.3082H4.68813V6.56419H4.67837C4.44275 6.69094 3.96094 6.98669 3.65625 7.1955V6.63C3.99818 6.39043 4.35445 6.172 4.72306 5.97594H5.23656H5.23738Z" fill="#FBFBFB"/>
</g>
<defs>
<clipPath id="clip0_191_268">
<rect width="13" height="13" fill="white"/>
</clipPath>
</defs>
</svg>
