<svg width="24" height="24" viewBox="0 0 24 24" fill="none" xmlns="http://www.w3.org/2000/svg">
<g clip-path="url(#clip0_191_508)">
<path d="M2.65256 4H21.3474C23.1111 4 24 4.826 24 6.506V18.294C24 19.96 23.1111 20.8 21.3474 20.8H2.65256C0.888889 20.8 0 19.96 0 18.294V6.506C0 4.826 0.888889 4 2.65256 4ZM11.9929 16.04L21.5026 8.298C21.8413 8.018 22.1093 7.374 21.6861 6.8C21.2769 6.226 20.5291 6.212 20.0353 6.562L11.9929 11.966L3.96473 6.562C3.4709 6.212 2.7231 6.226 2.31393 6.8C1.89065 7.374 2.15873 8.018 2.49735 8.298L11.9929 16.04Z" fill="white"/>
</g>
<defs>
<clipPath id="clip0_191_508">
<rect width="24" height="24" fill="white"/>
</clipPath>
</defs>
</svg>
