<svg width="215" height="92" viewBox="0 0 215 92" fill="none" xmlns="http://www.w3.org/2000/svg">
<path d="M2.745 12.61H11.295V37H2.745V12.61ZM7.02 9.91C5.46 9.91 4.2 9.475 3.24 8.605C2.28 7.735 1.8 6.655 1.8 5.365C1.8 4.075 2.28 2.995 3.24 2.125C4.2 1.255 5.46 0.819999 7.02 0.819999C8.58 0.819999 9.84 1.24 10.8 2.08C11.76 2.89 12.24 3.94 12.24 5.23C12.24 6.58 11.76 7.705 10.8 8.605C9.84 9.475 8.58 9.91 7.02 9.91ZM32.9614 37.63C29.6614 37.63 26.6914 36.94 24.0514 35.56C21.4414 34.15 19.3864 32.2 17.8864 29.71C16.3864 27.22 15.6364 24.4 15.6364 21.25C15.6364 18.1 16.3864 15.28 17.8864 12.79C19.3864 10.3 21.4414 8.365 24.0514 6.985C26.6914 5.575 29.6614 4.87 32.9614 4.87C35.8414 4.87 38.4364 5.38 40.7464 6.4C43.0564 7.42 44.9764 8.89 46.5064 10.81L40.8364 15.94C38.7964 13.48 36.3214 12.25 33.4114 12.25C31.7014 12.25 30.1714 12.625 28.8214 13.375C27.5014 14.125 26.4664 15.19 25.7164 16.57C24.9964 17.92 24.6364 19.48 24.6364 21.25C24.6364 23.02 24.9964 24.595 25.7164 25.975C26.4664 27.325 27.5014 28.375 28.8214 29.125C30.1714 29.875 31.7014 30.25 33.4114 30.25C36.3214 30.25 38.7964 29.02 40.8364 26.56L46.5064 31.69C44.9764 33.61 43.0564 35.08 40.7464 36.1C38.4364 37.12 35.8414 37.63 32.9614 37.63ZM88.9411 13.51H94.7461V19.9H89.1661V37H80.6161V12.88C80.6161 9.91 81.5011 7.555 83.2711 5.815C85.0711 4.075 87.5761 3.205 90.7861 3.205C91.8661 3.205 92.9161 3.31 93.9361 3.52C94.9561 3.73 95.7961 4.045 96.4561 4.465L94.3411 10.495C93.5011 10.015 92.6461 9.775 91.7761 9.775C90.8761 9.775 90.1711 10.045 89.6611 10.585C89.1811 11.125 88.9411 11.92 88.9411 12.97V13.51ZM110.673 30.88C111.843 30.88 112.848 30.715 113.688 30.385C114.558 30.055 115.428 29.515 116.298 28.765L120.753 33.445C118.443 36.085 114.993 37.405 110.403 37.405C107.553 37.405 105.048 36.865 102.888 35.785C100.728 34.705 99.0479 33.205 97.8479 31.285C96.6779 29.365 96.0929 27.19 96.0929 24.76C96.0929 22.36 96.6779 20.215 97.8479 18.325C99.0179 16.405 100.623 14.905 102.663 13.825C104.733 12.745 107.043 12.205 109.593 12.205C111.963 12.205 114.123 12.7 116.073 13.69C118.053 14.65 119.628 16.075 120.798 17.965C121.968 19.825 122.553 22.045 122.553 24.625L105.138 27.955C106.068 29.905 107.913 30.88 110.673 30.88ZM109.638 18.28C108.168 18.28 106.968 18.745 106.038 19.675C105.108 20.575 104.583 21.88 104.463 23.59L114.363 21.655C114.063 20.635 113.493 19.825 112.653 19.225C111.813 18.595 110.808 18.28 109.638 18.28Z" fill="white"/>
<path d="M75.112 12.61V37H66.967V34.57C65.377 36.46 62.977 37.405 59.767 37.405C57.547 37.405 55.522 36.895 53.692 35.875C51.892 34.825 50.452 33.34 49.372 31.42C48.322 29.5 47.797 27.28 47.797 24.76C47.797 22.24 48.322 20.035 49.372 18.145C50.452 16.225 51.892 14.755 53.692 13.735C55.522 12.715 57.547 12.205 59.767 12.205C62.647 12.205 64.912 13.045 66.562 14.725V12.61H75.112ZM61.567 30.61C63.067 30.61 64.297 30.1 65.257 29.08C66.217 28.03 66.697 26.59 66.697 24.76C66.697 22.96 66.217 21.55 65.257 20.53C64.297 19.51 63.067 19 61.567 19C60.067 19 58.837 19.51 57.877 20.53C56.917 21.55 56.437 22.96 56.437 24.76C56.437 26.59 56.917 28.03 57.877 29.08C58.837 30.1 60.067 30.61 61.567 30.61Z" fill="#0078D4"/>
<path d="M32.855 81.63C29.555 81.63 26.585 80.94 23.945 79.56C21.335 78.15 19.28 76.2 17.78 73.71C16.28 71.22 15.53 68.4 15.53 65.25C15.53 62.1 16.28 59.28 17.78 56.79C19.28 54.3 21.335 52.365 23.945 50.985C26.585 49.575 29.555 48.87 32.855 48.87C35.735 48.87 38.33 49.38 40.64 50.4C42.95 51.42 44.87 52.89 46.4 54.81L40.73 59.94C38.69 57.48 36.215 56.25 33.305 56.25C31.595 56.25 30.065 56.625 28.715 57.375C27.395 58.125 26.36 59.19 25.61 60.57C24.89 61.92 24.53 63.48 24.53 65.25C24.53 67.02 24.89 68.595 25.61 69.975C26.36 71.325 27.395 72.375 28.715 73.125C30.065 73.875 31.595 74.25 33.305 74.25C36.215 74.25 38.69 73.02 40.73 70.56L46.4 75.69C44.87 77.61 42.95 79.08 40.64 80.1C38.33 81.12 35.735 81.63 32.855 81.63ZM95.0763 56.205C98.1063 56.205 100.536 57.105 102.366 58.905C104.226 60.705 105.156 63.42 105.156 67.05V81H96.6063V68.445C96.6063 65.115 95.2713 63.45 92.6013 63.45C91.1313 63.45 89.9463 63.93 89.0463 64.89C88.1763 65.85 87.7413 67.29 87.7413 69.21V81H79.1913V56.61H87.3363V59.265C88.2963 58.275 89.4363 57.525 90.7563 57.015C92.0763 56.475 93.5163 56.205 95.0763 56.205ZM126.409 56.205C129.439 56.205 131.869 57.105 133.699 58.905C135.559 60.705 136.489 63.42 136.489 67.05V81H127.939V68.445C127.939 65.115 126.604 63.45 123.934 63.45C122.464 63.45 121.279 63.93 120.379 64.89C119.509 65.85 119.074 67.29 119.074 69.21V81H110.524V56.61H118.669V59.265C119.629 58.275 120.769 57.525 122.089 57.015C123.409 56.475 124.849 56.205 126.409 56.205ZM155.259 74.88C156.429 74.88 157.434 74.715 158.274 74.385C159.144 74.055 160.014 73.515 160.884 72.765L165.339 77.445C163.029 80.085 159.579 81.405 154.989 81.405C152.139 81.405 149.634 80.865 147.474 79.785C145.314 78.705 143.634 77.205 142.434 75.285C141.264 73.365 140.679 71.19 140.679 68.76C140.679 66.36 141.264 64.215 142.434 62.325C143.604 60.405 145.209 58.905 147.249 57.825C149.319 56.745 151.629 56.205 154.179 56.205C156.549 56.205 158.709 56.7 160.659 57.69C162.639 58.65 164.214 60.075 165.384 61.965C166.554 63.825 167.139 66.045 167.139 68.625L149.724 71.955C150.654 73.905 152.499 74.88 155.259 74.88ZM154.224 62.28C152.754 62.28 151.554 62.745 150.624 63.675C149.694 64.575 149.169 65.88 149.049 67.59L158.949 65.655C158.649 64.635 158.079 63.825 157.239 63.225C156.399 62.595 155.394 62.28 154.224 62.28ZM183.546 81.405C180.846 81.405 178.431 80.865 176.301 79.785C174.171 78.705 172.506 77.205 171.306 75.285C170.136 73.365 169.551 71.19 169.551 68.76C169.551 66.33 170.136 64.17 171.306 62.28C172.506 60.36 174.171 58.875 176.301 57.825C178.431 56.745 180.846 56.205 183.546 56.205C186.306 56.205 188.691 56.805 190.701 58.005C192.711 59.175 194.136 60.81 194.976 62.91L188.361 66.285C187.251 64.095 185.631 63 183.501 63C181.971 63 180.696 63.51 179.676 64.53C178.686 65.55 178.191 66.96 178.191 68.76C178.191 70.59 178.686 72.03 179.676 73.08C180.696 74.1 181.971 74.61 183.501 74.61C185.631 74.61 187.251 73.515 188.361 71.325L194.976 74.7C194.136 76.8 192.711 78.45 190.701 79.65C188.691 80.82 186.306 81.405 183.546 81.405ZM213.812 80.01C213.092 80.46 212.207 80.805 211.157 81.045C210.137 81.285 209.042 81.405 207.872 81.405C204.692 81.405 202.247 80.625 200.537 79.065C198.857 77.505 198.017 75.18 198.017 72.09V51.165H206.567V57.51H212.102V63.9H206.567V72C206.567 72.9 206.792 73.59 207.242 74.07C207.692 74.55 208.307 74.79 209.087 74.79C210.077 74.79 210.947 74.535 211.697 74.025L213.812 80.01Z" fill="white"/>
<path d="M61.4606 81.405C58.8506 81.405 56.4956 80.865 54.3956 79.785C52.2956 78.705 50.6456 77.205 49.4456 75.285C48.2756 73.365 47.6906 71.19 47.6906 68.76C47.6906 66.36 48.2756 64.2 49.4456 62.28C50.6456 60.36 52.2806 58.875 54.3506 57.825C56.4506 56.745 58.8206 56.205 61.4606 56.205C64.1006 56.205 66.4706 56.745 68.5706 57.825C70.6706 58.875 72.3056 60.36 73.4756 62.28C74.6456 64.17 75.2306 66.33 75.2306 68.76C75.2306 71.19 74.6456 73.365 73.4756 75.285C72.3056 77.205 70.6706 78.705 68.5706 79.785C66.4706 80.865 64.1006 81.405 61.4606 81.405ZM61.4606 74.61C62.9606 74.61 64.1906 74.1 65.1506 73.08C66.1106 72.03 66.5906 70.59 66.5906 68.76C66.5906 66.96 66.1106 65.55 65.1506 64.53C64.1906 63.51 62.9606 63 61.4606 63C59.9606 63 58.7306 63.51 57.7706 64.53C56.8106 65.55 56.3306 66.96 56.3306 68.76C56.3306 70.59 56.8106 72.03 57.7706 73.08C58.7306 74.1 59.9606 74.61 61.4606 74.61Z" fill="#0078D4"/>
<path d="M61 65.0134L61 27.9999" stroke="#1B9DE2" stroke-width="5" stroke-linecap="round"/>
</svg>
