<svg width="16" height="26" viewBox="0 0 16 26" fill="none" xmlns="http://www.w3.org/2000/svg">
<path d="M0 3.25C0 2.38805 0.337142 1.5614 0.937258 0.951903C1.53737 0.34241 2.35131 0 3.2 0L12.8 0C13.6487 0 14.4626 0.34241 15.0627 0.951903C15.6629 1.5614 16 2.38805 16 3.25V22.75C16 23.612 15.6629 24.4386 15.0627 25.0481C14.4626 25.6576 13.6487 26 12.8 26H3.2C2.35131 26 1.53737 25.6576 0.937258 25.0481C0.337142 24.4386 0 23.612 0 22.75V3.25ZM9.6 21.125C9.6 20.694 9.43143 20.2807 9.13137 19.976C8.83131 19.6712 8.42435 19.5 8 19.5C7.57565 19.5 7.16869 19.6712 6.86863 19.976C6.56857 20.2807 6.4 20.694 6.4 21.125C6.4 21.556 6.56857 21.9693 6.86863 22.274C7.16869 22.5788 7.57565 22.75 8 22.75C8.42435 22.75 8.83131 22.5788 9.13137 22.274C9.43143 21.9693 9.6 21.556 9.6 21.125Z" fill="white"/>
</svg>
