<svg width="43" height="44" viewBox="0 0 43 44" fill="none" xmlns="http://www.w3.org/2000/svg">
<path d="M5.93332 42V36.32H3.69332V35H9.79332V36.32H7.55332V42H5.93332ZM12.5681 42.08C11.9948 42.08 11.4848 41.96 11.0381 41.72C10.5981 41.48 10.2481 41.1533 9.98809 40.74C9.73475 40.32 9.60809 39.8433 9.60809 39.31C9.60809 38.77 9.73475 38.2933 9.98809 37.88C10.2481 37.46 10.5981 37.1333 11.0381 36.9C11.4848 36.66 11.9948 36.54 12.5681 36.54C13.1348 36.54 13.6414 36.66 14.0881 36.9C14.5348 37.1333 14.8848 37.4567 15.1381 37.87C15.3914 38.2833 15.5181 38.7633 15.5181 39.31C15.5181 39.8433 15.3914 40.32 15.1381 40.74C14.8848 41.1533 14.5348 41.48 14.0881 41.72C13.6414 41.96 13.1348 42.08 12.5681 42.08ZM12.5681 40.8C12.8281 40.8 13.0614 40.74 13.2681 40.62C13.4748 40.5 13.6381 40.33 13.7581 40.11C13.8781 39.8833 13.9381 39.6167 13.9381 39.31C13.9381 38.9967 13.8781 38.73 13.7581 38.51C13.6381 38.29 13.4748 38.12 13.2681 38C13.0614 37.88 12.8281 37.82 12.5681 37.82C12.3081 37.82 12.0748 37.88 11.8681 38C11.6614 38.12 11.4948 38.29 11.3681 38.51C11.2481 38.73 11.1881 38.9967 11.1881 39.31C11.1881 39.6167 11.2481 39.8833 11.3681 40.11C11.4948 40.33 11.6614 40.5 11.8681 40.62C12.0748 40.74 12.3081 40.8 12.5681 40.8ZM19.7408 42.08C19.2875 42.08 18.8908 41.98 18.5508 41.78C18.2108 41.58 17.9442 41.2767 17.7508 40.87C17.5642 40.4567 17.4708 39.9367 17.4708 39.31C17.4708 38.6767 17.5608 38.1567 17.7408 37.75C17.9208 37.3433 18.1808 37.04 18.5208 36.84C18.8608 36.64 19.2675 36.54 19.7408 36.54C20.2475 36.54 20.7008 36.6567 21.1008 36.89C21.5075 37.1167 21.8275 37.4367 22.0608 37.85C22.3008 38.2633 22.4208 38.75 22.4208 39.31C22.4208 39.8767 22.3008 40.3667 22.0608 40.78C21.8275 41.1933 21.5075 41.5133 21.1008 41.74C20.7008 41.9667 20.2475 42.08 19.7408 42.08ZM16.5608 43.94V36.62H18.0508V37.72L18.0208 39.32L18.1208 40.91V43.94H16.5608ZM19.4708 40.8C19.7308 40.8 19.9608 40.74 20.1608 40.62C20.3675 40.5 20.5308 40.33 20.6508 40.11C20.7775 39.8833 20.8408 39.6167 20.8408 39.31C20.8408 38.9967 20.7775 38.73 20.6508 38.51C20.5308 38.29 20.3675 38.12 20.1608 38C19.9608 37.88 19.7308 37.82 19.4708 37.82C19.2108 37.82 18.9775 37.88 18.7708 38C18.5642 38.12 18.4008 38.29 18.2808 38.51C18.1608 38.73 18.1008 38.9967 18.1008 39.31C18.1008 39.6167 18.1608 39.8833 18.2808 40.11C18.4008 40.33 18.5642 40.5 18.7708 40.62C18.9775 40.74 19.2108 40.8 19.4708 40.8ZM28.5671 42.08C28.1205 42.08 27.7205 41.9933 27.3671 41.82C27.0205 41.6467 26.7505 41.3833 26.5571 41.03C26.3638 40.67 26.2671 40.2133 26.2671 39.66V36.62H27.8271V39.43C27.8271 39.8767 27.9205 40.2067 28.1071 40.42C28.3005 40.6267 28.5705 40.73 28.9171 40.73C29.1571 40.73 29.3705 40.68 29.5571 40.58C29.7438 40.4733 29.8905 40.3133 29.9971 40.1C30.1038 39.88 30.1571 39.6067 30.1571 39.28V36.62H31.7171V42H30.2371V40.52L30.5071 40.95C30.3271 41.3233 30.0605 41.6067 29.7071 41.8C29.3605 41.9867 28.9805 42.08 28.5671 42.08ZM36.3424 42.08C35.889 42.08 35.4924 41.98 35.1524 41.78C34.8124 41.58 34.5457 41.2767 34.3524 40.87C34.1657 40.4567 34.0724 39.9367 34.0724 39.31C34.0724 38.6767 34.1624 38.1567 34.3424 37.75C34.5224 37.3433 34.7824 37.04 35.1224 36.84C35.4624 36.64 35.869 36.54 36.3424 36.54C36.849 36.54 37.3024 36.6567 37.7024 36.89C38.109 37.1167 38.429 37.4367 38.6624 37.85C38.9024 38.2633 39.0224 38.75 39.0224 39.31C39.0224 39.8767 38.9024 40.3667 38.6624 40.78C38.429 41.1933 38.109 41.5133 37.7024 41.74C37.3024 41.9667 36.849 42.08 36.3424 42.08ZM33.1624 43.94V36.62H34.6524V37.72L34.6224 39.32L34.7224 40.91V43.94H33.1624ZM36.0724 40.8C36.3324 40.8 36.5624 40.74 36.7624 40.62C36.969 40.5 37.1324 40.33 37.2524 40.11C37.379 39.8833 37.4424 39.6167 37.4424 39.31C37.4424 38.9967 37.379 38.73 37.2524 38.51C37.1324 38.29 36.969 38.12 36.7624 38C36.5624 37.88 36.3324 37.82 36.0724 37.82C35.8124 37.82 35.579 37.88 35.3724 38C35.1657 38.12 35.0024 38.29 34.8824 38.51C34.7624 38.73 34.7024 38.9967 34.7024 39.31C34.7024 39.6167 34.7624 39.8833 34.8824 40.11C35.0024 40.33 35.1657 40.5 35.3724 40.62C35.579 40.74 35.8124 40.8 36.0724 40.8Z" fill="white"/>
<g clip-path="url(#clip0_191_16)">
<path fill-rule="evenodd" clip-rule="evenodd" d="M20.289 0C11.911 0 5.11902 6.7931 5.11902 15.1724C5.11902 23.5517 11.911 30.3448 20.289 30.3448C28.667 30.3448 35.459 23.5517 35.459 15.1724C35.459 6.7931 28.667 0 20.289 0ZM21.6681 20.6897C21.6681 21.0555 21.5228 21.4063 21.2642 21.665C21.0056 21.9236 20.6548 22.069 20.289 22.069C19.9233 22.069 19.5725 21.9236 19.3139 21.665C19.0552 21.4063 18.9099 21.0555 18.9099 20.6897V16.5517H14.7727C14.4069 16.5517 14.0561 16.4064 13.7975 16.1477C13.5389 15.8891 13.3936 15.5382 13.3936 15.1724C13.3936 14.8066 13.5389 14.4558 13.7975 14.1971C14.0561 13.9384 14.4069 13.7931 14.7727 13.7931H18.9099V9.65517C18.9099 9.28936 19.0552 8.93852 19.3139 8.67985C19.5725 8.42118 19.9233 8.27586 20.289 8.27586C20.6548 8.27586 21.0056 8.42118 21.2642 8.67985C21.5228 8.93852 21.6681 9.28936 21.6681 9.65517V13.7931H25.8054C26.1711 13.7931 26.5219 13.9384 26.7805 14.1971C27.0392 14.4558 27.1845 14.8066 27.1845 15.1724C27.1845 15.5382 27.0392 15.8891 26.7805 16.1477C26.5219 16.4064 26.1711 16.5517 25.8054 16.5517H21.6681V20.6897Z" fill="#FBFBFB"/>
</g>
<defs>
<clipPath id="clip0_191_16">
<rect width="30.34" height="30.3448" fill="white" transform="translate(5.11902)"/>
</clipPath>
</defs>
</svg>
