<svg width="22" height="20" viewBox="0 0 22 20" fill="none" xmlns="http://www.w3.org/2000/svg">
<path d="M19.8 4.44444V2.22222C19.8 0.996667 18.8133 0 17.6 0H3.3C1.4806 0 0 1.49556 0 3.33333V16.6667C0 19.1122 1.9734 20 3.3 20H19.8C21.0133 20 22 19.0033 22 17.7778V6.66667C22 5.44111 21.0133 4.44444 19.8 4.44444ZM17.6 14.4444H15.4V10H17.6V14.4444ZM3.3 4.44444C3.01677 4.43165 2.74935 4.30899 2.5534 4.10202C2.35746 3.89505 2.24811 3.61971 2.24811 3.33333C2.24811 3.04696 2.35746 2.77162 2.5534 2.56465C2.74935 2.35767 3.01677 2.23502 3.3 2.22222H17.6V4.44444H3.3Z" fill="white"/>
</svg>
